<svg aria-hidden="true" style="position: absolute; width: 0; height: 0; overflow: hidden;" version="1.1" xmlns="http://www.w3.org/2000/svg" xmlns:xlink="http://www.w3.org/1999/xlink">
	<defs>
		<symbol id="icon-Frame-2" viewBox="0 0 34 32">
			<path fill="#198c36" style="fill: var(--color1, #198c36)" d="M34.286 6.004c-1.275 0.516-2.634 0.857-4.050 1.023 1.457-0.802 2.569-2.063 3.092-3.582-1.359 0.747-2.859 1.274-4.457 1.569-1.29-1.266-3.129-2.051-5.134-2.051-3.891 0-7.024 2.912-7.024 6.483 0 0.514 0.047 1.008 0.163 1.478-5.844-0.263-11.014-2.845-14.488-6.779-0.606 0.97-0.962 2.080-0.962 3.276 0 2.244 1.254 4.234 3.122 5.386-1.129-0.020-2.237-0.322-3.176-0.798 0 0.020 0 0.046 0 0.071 0 3.149 2.436 5.765 5.631 6.368-0.572 0.144-1.196 0.213-1.843 0.213-0.45 0-0.904-0.024-1.331-0.111 0.911 2.567 3.495 4.454 6.568 4.515-2.391 1.725-5.428 2.764-8.715 2.764-0.576 0-1.129-0.024-1.682-0.089 3.114 1.851 6.804 2.908 10.783 2.908 12.934 0 20.006-9.879 20.006-18.442 0-0.287-0.011-0.563-0.026-0.838 1.395-0.913 2.567-2.053 3.523-3.365z">
			</path>
		</symbol>
		<symbol id="icon-Frame-1" viewBox="0 0 32 32">
			<path fill="#198c36" style="fill: var(--color1, #198c36)" d="M27.313 0h-22.625c-2.584 0-4.688 2.103-4.688 4.688v22.625c0 2.584 2.103 4.688 4.688 4.688h22.625c2.584 0 4.688-2.103 4.688-4.688v-22.625c0-2.584-2.103-4.688-4.688-4.688zM16.062 24.375c-4.653 0-8.437-3.785-8.437-8.438s3.785-8.438 8.437-8.438c4.653 0 8.438 3.785 8.438 8.438s-3.785 8.438-8.438 8.438zM25.437 9.375c-1.551 0-2.812-1.262-2.812-2.813s1.262-2.813 2.812-2.813c1.551 0 2.813 1.262 2.813 2.813s-1.262 2.813-2.813 2.813z">
			</path>
			<path fill="#198c36" style="fill: var(--color1, #198c36)" d="M25.437 5.625c-0.517 0-0.937 0.42-0.937 0.938s0.42 0.938 0.937 0.938c0.517 0 0.938-0.42 0.938-0.938s-0.42-0.938-0.938-0.938z">
			</path>
			<path fill="#198c36" style="fill: var(--color1, #198c36)" d="M16.062 9.375c-3.618 0-6.562 2.944-6.562 6.563s2.944 6.562 6.562 6.562c3.618 0 6.563-2.944 6.563-6.562s-2.944-6.563-6.563-6.563z">
			</path>
		</symbol>
		<symbol id="icon-Group-13" viewBox="0 0 34 32">
			<path fill="#198c36" style="fill: var(--color1, #198c36)" d="M29.263 0h-24.241c-2.769 0-5.022 2.078-5.022 4.631v22.351c0 2.553 2.253 4.631 5.022 4.631h24.241c2.769 0 5.022-2.078 5.022-4.631v-22.351c0-2.553-2.253-4.631-5.022-4.631zM12.121 25.068h-4.018v-12.966h4.018v12.966zM12.121 10.249h-4.018v-3.705h4.018v3.705zM26.183 25.068h-4.018v-7.409c0-1.021-0.901-1.852-2.009-1.852s-2.009 0.831-2.009 1.852v7.409h-4.018v-12.966h4.018v0.698c1.053-0.302 1.736-0.698 3.013-0.698 2.725 0.003 5.022 2.257 5.022 4.92v8.046z">
			</path>
		</symbol>
		<symbol id="icon-Vector-1" viewBox="0 0 17 32">
			<path fill="#198c36" style="fill: var(--color1, #198c36)" d="M14.169 5.308h3.165v-5.082c-0.546-0.069-2.424-0.225-4.61-0.225-4.563 0-7.688 2.646-7.688 7.51v4.476h-5.035v5.682h5.035v14.296h6.173v-14.295h4.831l0.767-5.682h-5.6v-3.914c0.001-1.642 0.481-2.766 2.962-2.766z">
			</path>
		</symbol>
		<symbol id="icon-Vector" viewBox="0 0 51 32">
			<path fill="none" stroke="#fbc8b8" style="stroke: var(--color2, #fbc8b8)" stroke-linejoin="miter" stroke-linecap="butt" stroke-miterlimit="4" stroke-width="0.5246" d="M28.977 1.391c-14.489-0.134-29.488 2.7-28.566 17.414 0.521 4.426 6.569 13.196 26.59 12.866 9.796 0 23.017-6.004 22.556-17.814-0.521-4.784 0.774-14.581-26.755-13.526-0.988 0.038-8.809 0.66-11.278 1.649-6.256 1.732-16.053 9.155-7.656 19.299 2.458 2.969 8.216 8.561 26.59 7.835 7.052-0.275 28.977-9.897 15.641-22.351-4.857-4.536-17.123-8.413-40.091-2.123">
			</path>
		</symbol>
		<symbol id="icon-Group-12" viewBox="0 0 67 32">
			<path fill="#fbc8b8" style="fill: var(--color2, #fbc8b8)" d="M4.894 6.875c5.2 4.389 11.492 7.276 18.189 8.317 7.055 1.096 15.048 1.045 21.388-0.504 4.343-1.064 4.96-1.259 6.048-1.938-1.875-2.327-8.017-6.267-7.668-11.045 0.075-1.049 1.277-1.593 2.107-0.961 5.235 3.992 16.125 10.533 20.731 14.624 0.483 0.429 1.010 0.953 0.979 1.605-0.028 0.632-0.566 1.096-1.061 1.481-6.276 4.849-12.867 9.286-19.709 13.273-0.939 0.548-2.189 0.254-2.7-0.715-0.448-0.842 0.031-1.493 0.483-2.073 2.138-2.744 4.276-5.489 6.414-8.237-10.989 4.691-23.828 4.488-34.817-0.123-6.166-2.586-11.291-7.244-14.298-13.261-1.611-3.233-1.8-5.262 3.914-0.441z">
			</path>
		</symbol>
		<symbol id="icon-Group-11" viewBox="0 0 67 32">
			<path fill="#fbc8b8" style="fill: var(--color2, #fbc8b8)" d="M4.894 24.83c5.2-4.337 11.492-7.191 18.189-8.219 7.055-1.083 15.048-1.032 21.388 0.498 4.343 1.052 4.96 1.244 6.048 1.915-1.875 2.3-8.017 6.194-7.668 10.915 0.075 1.036 1.277 1.574 2.106 0.95 5.235-3.945 16.125-10.409 20.731-14.452 0.483-0.424 1.010-0.942 0.979-1.586-0.028-0.624-0.566-1.083-1.061-1.464-6.276-4.792-12.867-9.177-19.709-13.117-0.939-0.542-2.189-0.251-2.7 0.707-0.448 0.832 0.031 1.476 0.483 2.049 2.138 2.712 4.276 5.424 6.414 8.14-10.989-4.635-23.828-4.435-34.817 0.122-6.166 2.555-11.291 7.159-14.298 13.105-1.611 3.195-1.8 5.201 3.914 0.436z">
			</path>
		</symbol>
		<symbol id="icon-Group-10" viewBox="0 0 32 32">
			<path fill="#f7bc28" style="fill: var(--color3, #f7bc28)" d="M8.752 1.317c-2.518 1.104-4.752 2.884-6.099 5.055-3.369 5.447-3.333 13.706 2.376 17.587 6.915 4.699 19.148 2.314 19.964-7.298 0.816-9.683-5.851-19.83-16.24-15.344z">
			</path>
			<path fill="#fbfaf7" style="fill: var(--color4, #fbfaf7)" d="M9.923 4.13c-1.879 0.819-3.511 2.136-4.503 3.738-2.518 4.059-2.482 10.182 1.773 13.065 5.142 3.489 14.219 1.709 14.822-5.411 0.567-7.156-4.361-14.703-12.092-11.392z">
			</path>
			<path fill="#f7bc28" style="fill: var(--color3, #f7bc28)" d="M18.468 22.785c1.738 2.207 2.801 3.275 4.432 4.628 1.17 0.961 2.34 1.922 3.475 2.884 0.957 0.783 2.092 1.638 3.298 1.424 1.277-0.214 2.163-1.709 1.738-2.955-0.142-0.427-0.425-0.819-0.745-1.175-2.198-2.812-4.752-5.34-7.588-7.547l-4.61 2.741z">
			</path>
			<path fill="#e48929" style="fill: var(--color5, #e48929)" d="M24.709 28.872l4.078-3.596 0.78 0.89-3.971 3.418-0.887-0.712z">
			</path>
			<path fill="#e48929" style="fill: var(--color5, #e48929)" d="M26.128 30.083l3.865-3.346 0.674 0.854-3.723 3.168-0.816-0.676z">
			</path>
		</symbol>
		<symbol id="icon-Group-9" viewBox="0 0 35 32">
			<path fill="#f7bc28" style="fill: var(--color3, #f7bc28)" d="M15.327 10.952c1.006-1.318 2.507-10.714 5.205-8.148 1.757 1.665 2.807 6.331 4.313 8.099 1.838 2.154 11.058-0.027 10.541 3.423-0.359 2.392-5.531 3.9-6.886 5.815-2.605 3.678 1.828 6.184 1.55 9.775-0.294 3.765-6.103-0.016-7.87-1.058-1.458-0.857-2.339-1.714-4.025-1.259-2.926 0.787-4.433 4.003-7.533 4.389-3.133 0.391 0.082-6.374 0.522-7.41 0.375-0.879 1.963-3.222 1.73-4.199-0.424-1.774-3.992-2.327-5.466-2.799-2.497-0.792-3.981-3.483-1.148-3.938 3.334-0.542 7.43-0.548 9.067-2.691z">
			</path>
			<path fill="#e48929" style="fill: var(--color5, #e48929)" d="M17.465 14.093c0.555-0.727 1.382-5.886 2.861-4.475 0.963 0.917 1.545 3.477 2.371 4.448 1.012 1.183 6.075-0.016 5.793 1.882-0.196 1.313-3.040 2.143-3.785 3.195-1.43 2.018 1.006 3.396 0.854 5.37-0.163 2.067-3.35-0.011-4.324-0.58-0.8-0.472-1.284-0.944-2.214-0.694-1.605 0.434-2.437 2.202-4.139 2.414-1.719 0.212 0.044-3.499 0.288-4.074 0.207-0.483 1.077-1.768 0.946-2.305-0.234-0.976-2.197-1.28-3.002-1.535-1.371-0.434-2.186-1.915-0.631-2.164 1.833-0.304 4.079-0.304 4.982-1.481z">
			</path>
			<path fill="#fbc8b8" style="fill: var(--color2, #fbc8b8)" d="M30.018 3.494c0.054-1.107 0.288-2.208 0.696-3.244 0.049-0.125 0.147-0.277 0.283-0.25 0.098 0.022 0.147 0.13 0.174 0.222 0.228 0.678 0.375 1.378 0.435 2.094 0.011 0.098 0.022 0.206 0.092 0.271 0.114 0.103 0.299 0.038 0.435-0.033 0.658-0.342 1.322-0.689 1.98-1.031 0.033 0.846-0.925 1.351-1.349 2.083-0.065 0.114-0.12 0.239-0.093 0.369 0.022 0.119 0.114 0.206 0.196 0.293 0.598 0.608 1.197 1.215 1.8 1.828-0.903 0.098-1.844-0.174-2.556-0.738 0 1.058-0.114 2.121-0.348 3.157-0.506-0.787-0.881-1.66-1.093-2.566-0.528 0.38-1.061 0.754-1.588 1.134 0.272-0.57 0.544-1.139 0.816-1.703 0.033-0.076 0.071-0.152 0.065-0.233-0.011-0.13-0.125-0.222-0.234-0.298-0.587-0.385-1.768-0.683-1.915-1.454 0.604-0.25 1.556-0.022 2.203 0.098z">
			</path>
			<path fill="#fbc8b8" style="fill: var(--color2, #fbc8b8)" d="M1.887 24.579c0.022-0.841 0.201-1.682 0.528-2.457 0.033-0.081 0.092-0.179 0.179-0.168 0.082 0.005 0.12 0.098 0.147 0.174 0.169 0.515 0.283 1.047 0.337 1.584 0.011 0.081 0.022 0.168 0.076 0.222 0.114 0.103 0.288 0.005 0.408-0.087 0.424-0.32 0.903-0.559 1.409-0.711-0.071 0.646-0.772 1.020-1.077 1.595-0.033 0.060-0.060 0.125-0.049 0.195 0.011 0.076 0.071 0.141 0.125 0.195 0.462 0.456 0.925 0.917 1.381 1.378-0.664 0.184-1.343-0.19-1.931-0.548 0.016 0.803-0.060 1.606-0.239 2.387-0.381-0.608-0.658-1.275-0.816-1.975-0.386 0.304-0.772 0.613-1.159 0.917 0.060-0.407 0.239-0.792 0.506-1.101 0.082-0.092 0.179-0.195 0.169-0.32s-0.125-0.217-0.228-0.288c-0.549-0.369-1.104-0.743-1.653-1.117 0.114-0.141 0.343-0.174 0.495-0.071l1.392 0.195z">
			</path>
		</symbol>
		<symbol id="icon-Frame" viewBox="0 0 26 32">
			<path fill="#f7bc28" style="fill: var(--color3, #f7bc28)" d="M1.965 5.936c-1.132 0.654-1.853 1.85-1.905 3.17-0.179 4.463-0.349 13.896 5.819 18.683l5.286 3.567c1.206 0.814 2.765 0.855 4.016 0.111 1.636-0.971 3.825-2.434 5.091-3.952 0.057-0.070 0.117-0.136 0.179-0.201 0.802-0.826 6.843-7.432 5.905-18.325-0.107-1.247-0.807-2.366-1.877-2.993l-9.36-5.48c-1.165-0.683-2.6-0.688-3.768-0.010l-9.386 5.429z">
			</path>
			<path fill="#e48929" style="fill: var(--color5, #e48929)" d="M4.873 8.432c-0.838 0.484-1.373 1.373-1.413 2.351-0.134 3.31-0.258 10.304 4.315 13.857l3.921 2.647c0.895 0.603 2.051 0.634 2.977 0.082 1.213-0.719 2.837-1.804 3.775-2.93 0.043-0.051 0.086-0.102 0.134-0.148 0.595-0.613 5.057-5.56 4.379-13.59-0.043-0.521-1.318-2.078-1.753-2.431l-6.578-3.858c-0.864-0.506-1.927-0.509-2.794-0.007l-6.963 4.027z">
			</path>
			<path fill="#fbfaf7" style="fill: var(--color4, #fbfaf7)" d="M13.226 4.030v11.97h9.458c0 0 0.673-3.339 0.279-5.299 0 0-0.11-1.346-1.753-2.431l-6.58-3.858c0 0-0.669-0.407-1.404-0.383z">
			</path>
			<path fill="#fbfaf7" style="fill: var(--color4, #fbfaf7)" d="M13.226 16l-0.002 11.76c0 0-0.759 0.044-1.712-0.601l-3.152-2.126c0 0-2.672-1.615-3.541-4.289 0 0-1.096-2.458-1.246-4.964l9.653 0.22z">
			</path>
		</symbol>
		<symbol id="icon-Group-8" viewBox="0 0 20 32">
			<path fill="#f7bc28" style="fill: var(--color3, #f7bc28)" d="M5.53 4.585c-1.961 5.681-3.622 11.686-4.954 17.913-0.307 1.434-0.602 2.925-0.574 4.457s0.444 3.14 1.227 3.802c0.444 0.376 0.951 0.418 1.442 0.44 4.563 0.196 9.141-0.832 13.53-3.042 1.773-0.892 3.831-2.673 3.925-5.922 0.064-2.233-0.866-4.104-1.44-6.099-0.934-3.249-0.973-7.224-2.18-10.18-1.092-2.677-2.509-5.47-4.369-5.756-1.099-0.169-2.302-0.395-3.516 0.105-1.333 0.546-2.453 2.142-3.091 4.28z">
			</path>
			<path fill="#ffc9a0" style="fill: var(--color6, #ffc9a0)" d="M6.933 5.199c-0.804 4.081-1.135 8.516-0.96 12.875 0.085 2.101 0.301 4.262 0.939 5.967 0.817 2.187 2.283 3.321 3.663 3.019s2.643-1.946 3.407-4.209c1.116-3.302 1.165-7.529 1.015-11.475-0.134-3.509-0.578-7.526-2.182-9.137-1.261-1.265-2.784-0.55-4.151 0.192l-1.73 2.767z">
			</path>
			<path fill="#f7bc28" style="fill: var(--color3, #f7bc28)" d="M4.994 13.783c1.899 0.015 4.070-1.517 4.548-2.319 1.44-2.428 1.585-7.454 1.542-10.793l-4.512 2.854-1.547 5.128-0.032 5.131z">
			</path>
			<path fill="#f7bc28" style="fill: var(--color3, #f7bc28)" d="M10.063 0.666c0 0 1.922 9.656 5.961 11.042l-0.636-4.156-1.6-5.414-3.725-1.472z">
			</path>
			<path fill="#f7bc28" style="fill: var(--color3, #f7bc28)" d="M12.399 11.117c-0.107-0.030-0.211 0.068-0.258 0.241-0.011 0.041-0.023 0.083-0.032 0.128-0.030 0.143-0.028 0.335 0.049 0.407 0.030 0.030 0.066 0.030 0.1 0.030 0.358 0.011 0.715 0.098 1.065 0.245 0.177 0.075 0.352 0.166 0.525 0.275 0.043 0.026 0.203 0.184 0.241 0.158 0.073-0.045 0.036-0.275 0.006-0.358-0.041-0.109-0.107-0.181-0.169-0.248l-0.017-0.019c-0.352-0.38-0.745-0.64-1.152-0.753l-0.358-0.105z">
			</path>
			<path fill="#fff" style="fill: var(--color7, #fff)" d="M9.079 1.867c-1.402 0.004-2.842 3.972-3.337 5.963-0.553 2.225-1.53 4.608-2.202 6.724-0.657 2.071-1.31 4.16-1.809 6.37-0.247 1.092-0.454 2.214-0.599 3.362-0.13 1.017-0.105 1.261-0.181 2.312-0.087 1.193-0.060 2.59 0.619 2.812 0.666 0.218 1.89 0.166 2.556 0.32 0.124 0.030 0.179-0.309 0.053-0.339-0.964-0.23-2.56 0.501-2.942-1.683-0.175-1.002-0.060-2.105 0.062-3.102 0.13-1.077 1.436-5.18 1.655-6.208 0.902-4.205 1.577-4.898 2.665-8.949 0.608-2.263 1.265-4.864 2.415-6.438 0.179-0.248 0.378-0.456 0.595-0.572 0.186-0.098 0.478-0.226 0.638-0.301 0.203-0.102 0.156-0.271-0.188-0.271z">
			</path>
			<path fill="#fff" style="fill: var(--color7, #fff)" d="M7.051 28.917c-0.032 0-0.062-0.004-0.094-0.007-0.619-0.105-1.606-0.395-2.163-0.798-0.501-0.361-1.052-0.877-1.335-1.724-0.489-1.45-0.407-3.727 0.247-4.985 0.085-0.166 0.117-0.569 0.030-0.403-0.565 1.088-0.866 2.281-0.766 3.712 0.068 0.96 0.045 1.901 0.337 2.394 0.358 0.606 1.090 1.114 1.549 1.427 0.557 0.377 1.303 0.512 1.894 0.606 0.126 0.022 0.73 0 0.651-0.218h-0.35v-0.004z">
			</path>
			<path fill="#fff" style="fill: var(--color7, #fff)" d="M4.962 18.959c-0.292 1.404-0.621 3.716-0.435 4.864 0.109 0.666 0.828 1.675 1.402 2.519 0.098 0.143 0.311 0.248 0.213 0.102-0.546-0.802-1.152-1.694-1.342-2.959-0.215-1.427 0.015-3.302 0.297-4.646 0.043-0.211-0.090-0.090-0.134 0.12z">
			</path>
			<path fill="#fff" style="fill: var(--color7, #fff)" d="M5.545 12.318c0.71-0.184 1.38-0.64 2.033-1.152 0.604-0.471 1.572-1.265 2.057-2.078 0.48-0.813 0.585-2.206 0.8-3.302 0.235-1.182 0.196-1.841 0.201-3.091 0-0.226-0.141-0.832-0.141-0.606 0 3.52-0.431 5.538-1.408 7.115-0.463 0.745-1.043 1.22-1.611 1.66-0.638 0.497-1.293 0.937-1.986 1.114-0.124 0.034-0.070 0.373 0.055 0.339z">
			</path>
			<path fill="#fff" style="fill: var(--color7, #fff)" d="M6.869 8.531c0.169-1.107 0.947-2.221 1.395-3.064 0.489-0.915 0.595-1.224 1.188-1.909 0.107-0.124 0.209-0.681 0.102-0.557-0.636 0.734-1.455 1.837-1.965 2.831-0.454 0.885-0.742 1.822-0.783 2.398-0.015 0.222-0.081 0.809-0.002 0.862l0.064-0.561z">
			</path>
			<path fill="#fff" style="fill: var(--color7, #fff)" d="M8.495 7.454c0.623-1.393 1.329-3.117 1.222-4.254-0.021-0.218-0.173-0.316-0.192-0.094-0.139 1.751-0.789 3.497-1.391 4.849-0.079 0.173 0.085 0.117 0.164-0.060l0.196-0.44z">
			</path>
			<path fill="#fff" style="fill: var(--color7, #fff)" d="M16.474 11.754c-2.24-1.054-4.034-4.412-4.501-8.418-0.032 0.075-0.064 0.147-0.096 0.222 1.423-0.23 2.673 1.355 3.488 3.29 0.937 2.225 1.321 4.984 1.83 7.56 0.265 1.333 0.591 2.59 0.947 3.855 0.35 1.242 0.71 2.601 0.617 4.024-0.156 2.379-1.508 3.735-2.662 4.461-1.775 1.118-3.701 1.615-5.581 1.645-0.128 0.004-0.422 0.527-0.297 0.527 1.798-0.030 3.36-0.403 5.075-1.363 1.178-0.659 3.187-2.3 3.652-4.476 0.275-1.284 0.305-2.413 0.017-3.644-0.324-1.393-1.067-2.714-1.374-4.122-0.593-2.726-1.282-6.776-1.63-7.759-1.043-2.967-2.47-4.608-4.081-4.348-0.066 0.011-0.109 0.102-0.096 0.222 0.676 5.737 2.336 7.578 4.64 8.659 0.124 0.060 0.175-0.275 0.051-0.335z">
			</path>
			<path fill="#fff" style="fill: var(--color7, #fff)" d="M10.187 27.253c1.399 0.207 3.657-0.023 4.994-0.896 1.084-0.708 1.325-1.754 1.803-3.667 0.267-1.069 0.452-0.967-0.013-3.373-0.041-0.215-0.247-0.286-0.181-0.094 0.638 1.882-0.19 4.439-1.018 5.643-0.932 1.359-2.133 1.961-3.322 2.116-0.753 0.098-1.51 0.034-2.261-0.079-0.13-0.019-0.13 0.331-0.002 0.35z">
			</path>
			<path fill="#fff" style="fill: var(--color7, #fff)" d="M17.766 23.394c0.574-1.321 0.363-2.221 0.156-3.802-0.243-1.852-0.868-3.463-1.442-5.037-0.068-0.188-0.241-0.015-0.171 0.177 0.546 1.495 1.133 3.004 1.393 4.744 0.233 1.555 0.292 2.827-0.209 4.427-0.062 0.196-0.096 0.534-0.019 0.358l0.292-0.866z">
			</path>
			<path fill="#fff" style="fill: var(--color7, #fff)" d="M13.76 24.489c0.883-0.452 1.675-2.424 2.033-3.893 0.437-1.803-0.070-2.869-0.316-4.74-0.030-0.218-0.22-0.128-0.192 0.094 0.233 1.766 0.299 3.682-0.096 5.391-0.326 1.412-1.028 2.361-1.815 3.050-0.075 0.064-0.226 0.346-0.226 0.346l0.612-0.249z">
			</path>
			<path fill="#fff" style="fill: var(--color7, #fff)" d="M13.385 6.264c0.35 0.275 0.747 0.783 1.047 1.333 0.311 0.572 1.022 2.074 1.286 2.714 0.512 1.25 0.506 1.724 0.815 3.166 0.045 0.207 0.237 0.117 0.192-0.094-0.331-1.547-0.777-3.008-1.335-4.333-0.271-0.644-0.254-0.926-0.574-1.498-0.307-0.55-0.713-1.129-1.141-1.352-0.124-0.064-0.414 0-0.29 0.064z">
			</path>
			<path fill="#ffc9a0" style="fill: var(--color6, #ffc9a0)" d="M6.325 13.576c-0.847 0.245-1.152 0.226-1.929 0.919-0.557 0.497-1.143 1.22-1.233 2.312-0.115 1.404 0.681 2.571 1.47 2.842s1.604-0.034 2.406 0.079z">
			</path>
			<path fill="#ffc9a0" style="fill: var(--color6, #ffc9a0)" d="M14.773 11.336c0.717-0.128 1.446 0.041 2.121 0.489s1.246 1.653 1.124 2.903c-0.132 1.348-0.943 2.097-1.673 2.552-0.685 0.425-1.387 0.768-2.097 1.024z">
			</path>
			<path fill="#ffc9a0" style="fill: var(--color6, #ffc9a0)" d="M8.719 26.5l0.582 5.365h1.783l0.644-6.946-3.010 1.581z">
			</path>
			<path fill="#f1673c" style="fill: var(--color8, #f1673c)" d="M6.974 21.813c-0.026 0.041-0.064 0.041-0.090 0-0.203-0.316-0.439-0.561-0.651-0.862-0.226-0.324-0.431-0.738-0.482-1.242-0.096-0.949 0.454-1.592 0.9-0.983 0.126 0.169 0.224 0.395 0.316 0.625 0.009 0.023 0.032 0.011 0.030-0.019-0.017-0.264 0.038-0.542 0.137-0.745 0.169-0.358 0.527-0.663 0.798-0.572 0.382 0.124 0.373 0.904 0.269 1.416-0.126 0.617-0.486 1.163-0.751 1.596l-0.476 0.787z">
			</path>
			<path fill="#f1673c" style="fill: var(--color8, #f1673c)" d="M13.982 21.237c-0.028 0.038-0.066 0.026-0.087-0.019-0.181-0.354-0.399-0.644-0.589-0.986-0.205-0.365-0.38-0.821-0.399-1.333-0.034-0.964 0.555-1.487 0.96-0.794 0.113 0.196 0.196 0.437 0.273 0.685 0.009 0.026 0.030 0.015 0.030-0.011 0-0.267 0.075-0.531 0.186-0.715 0.192-0.32 0.565-0.55 0.83-0.407 0.371 0.203 0.311 0.971 0.175 1.461-0.166 0.587-0.559 1.054-0.849 1.434l-0.529 0.685z">
			</path>
			<path fill="#010101" style="fill: var(--color9, #010101)" d="M11.486 23.066c0.681-0.505 1.214-1.476 1.472-2.696 0.026-0.124-0.030-0.267-0.096-0.301-0.077-0.038-0.145 0.045-0.171 0.169-0.22 1.043-0.695 1.924-1.278 2.353-0.068 0.053-0.119 0.162-0.096 0.301 0.015 0.117 0.098 0.226 0.169 0.173z">
			</path>
			<path fill="#010101" style="fill: var(--color9, #010101)" d="M11.597 14.291c0.119 0.896 0.602 1.656 1.146 1.438 0.503-0.203 0.723-1.148 0.868-1.924-0.068 0.049-0.137 0.098-0.203 0.147 0.329 0.297 0.657 0.591 0.986 0.888 0.158 0.143 0.299-0.279 0.141-0.422-0.329-0.297-0.657-0.591-0.986-0.888-0.083-0.075-0.175-0.011-0.203 0.147-0.107 0.568-0.252 1.325-0.606 1.547-0.418 0.264-0.783-0.392-0.873-1.062-0.045-0.309-0.314-0.177-0.271 0.128z">
			</path>
			<path fill="#010101" style="fill: var(--color9, #010101)" d="M13.203 14.871c0.013 0.015 0.023 0.030 0.034 0.045 0.019 0.026 0.004 0.008-0.006-0.008 0.009 0.011 0.015 0.023 0.023 0.034 0.028 0.041 0.058 0.079 0.085 0.12 0.066 0.094 0.13 0.192 0.196 0.286 0.124 0.181 0.245 0.365 0.375 0.531 0.060 0.075 0.158 0.023 0.19-0.087 0.038-0.128 0.013-0.256-0.049-0.335-0.013-0.015-0.023-0.030-0.034-0.045-0.019-0.026-0.004-0.008 0.006 0.008-0.009-0.011-0.015-0.023-0.023-0.034-0.028-0.041-0.058-0.079-0.085-0.12-0.066-0.094-0.13-0.192-0.196-0.286-0.124-0.181-0.245-0.365-0.375-0.531-0.060-0.075-0.158-0.023-0.19 0.087-0.038 0.124-0.013 0.252 0.049 0.335z">
			</path>
			<path fill="#010101" style="fill: var(--color9, #010101)" d="M9.167 14.92c-0.090 0.67-0.454 1.325-0.873 1.062-0.354-0.222-0.499-0.979-0.606-1.547-0.030-0.154-0.122-0.222-0.203-0.147-0.329 0.297-0.657 0.591-0.986 0.888-0.16 0.143-0.019 0.565 0.141 0.422 0.329-0.297 0.657-0.591 0.986-0.889-0.068-0.049-0.137-0.098-0.203-0.147 0.145 0.776 0.365 1.717 0.868 1.924 0.544 0.222 1.026-0.542 1.146-1.438 0.038-0.301-0.23-0.433-0.271-0.128z">
			</path>
			<path fill="#010101" style="fill: var(--color9, #010101)" d="M7.686 15.206c-0.13 0.166-0.252 0.35-0.375 0.531-0.066 0.094-0.13 0.192-0.196 0.286-0.028 0.041-0.055 0.079-0.085 0.12-0.006 0.011-0.013 0.019-0.021 0.030s0.030-0.038 0.002-0.004c-0.011 0.015-0.023 0.030-0.034 0.045-0.058 0.075-0.094 0.215-0.049 0.335 0.038 0.102 0.128 0.169 0.19 0.087 0.13-0.166 0.252-0.35 0.375-0.531 0.066-0.094 0.13-0.192 0.196-0.286 0.028-0.041 0.055-0.079 0.085-0.12 0.006-0.011 0.013-0.019 0.021-0.030s-0.030 0.038-0.002 0.004c0.011-0.015 0.023-0.030 0.034-0.045 0.058-0.075 0.094-0.215 0.049-0.335-0.036-0.102-0.126-0.166-0.19-0.087z">
			</path>
			<path fill="#010101" style="fill: var(--color9, #010101)" d="M15.697 13.094c0.252-0.068 0.521 0.015 0.766 0.124 0.243 0.109 0.493 0.248 0.636 0.644 0.075 0.207 0.102 0.437 0.053 0.674-0.045 0.218-0.128 0.425-0.218 0.595-0.158 0.294-0.363 0.486-0.57 0.64-0.247 0.184-0.506 0.324-0.751 0.516-0.117 0.090-0.015 0.392 0.1 0.301 0.486-0.38 1.062-0.561 1.419-1.321 0.198-0.422 0.322-0.937 0.177-1.464-0.134-0.482-0.395-0.719-0.674-0.866-0.316-0.166-0.659-0.267-0.988-0.181-0.13 0.034-0.077 0.373 0.049 0.339z">
			</path>
			<path fill="#010101" style="fill: var(--color9, #010101)" d="M15.872 15.104c0.077-0.026 0.154-0.090 0.222-0.151 0.096-0.079 0.188-0.177 0.271-0.294 0.075-0.105 0.145-0.248 0.151-0.422 0.006-0.23-0.113-0.365-0.22-0.444-0.151-0.109-0.32-0.128-0.482-0.154-0.051-0.008-0.1 0.087-0.098 0.173 0.002 0.102 0.043 0.166 0.098 0.173 0.028 0.004 0.055 0.008 0.083 0.011 0.017 0.004 0.032 0.004 0.049 0.008 0.006 0 0.013 0.004 0.017 0.004s0.034 0.008 0.023 0.004c-0.015-0.004 0.015 0.004 0.015 0.004 0.009 0.004 0.019 0.004 0.028 0.008 0.015 0.004 0.032 0.008 0.047 0.015 0.034 0.011 0.066 0.026 0.1 0.041 0.015 0.008 0.028 0.015 0.043 0.026 0.006 0.004 0.011 0.008 0.017 0.011-0.021-0.015 0.004 0.004 0.009 0.008 0.013 0.011 0.026 0.023 0.036 0.034 0.006 0.008 0.011 0.011 0.017 0.019 0.023 0.026-0.009-0.015 0.002 0.004 0.006 0.011 0.013 0.023 0.017 0.030 0.013 0.019-0.013-0.038-0.004-0.011 0.002 0.004 0.002 0.008 0.004 0.011 0.013 0.034-0.006-0.041 0-0.004-0.002-0.038 0.009 0.049 0 0 0 0.004-0.002 0.019 0 0.019-0.002-0.004 0.006-0.045 0.002-0.026-0.002 0.011-0.004 0.023-0.006 0.034-0.004 0.030 0.013-0.041 0.004-0.015-0.002 0.004-0.004 0.011-0.004 0.019-0.004 0.015-0.009 0.026-0.013 0.038-0.011 0.026 0.017-0.034 0.004-0.008-0.002 0.004-0.006 0.011-0.009 0.019-0.006 0.011-0.013 0.023-0.019 0.034-0.015 0.026-0.032 0.053-0.049 0.079-0.004 0.008-0.013 0.023 0.006-0.008-0.004 0.008-0.011 0.015-0.015 0.019-0.009 0.011-0.017 0.023-0.026 0.034-0.019 0.023-0.041 0.045-0.060 0.068-0.038 0.041-0.079 0.079-0.119 0.113-0.021 0.019-0.043 0.038-0.066 0.053-0.002 0.004-0.006 0.008-0.011 0.008 0.030-0.015 0.006-0.004-0.002 0-0.009 0.008-0.019 0.015-0.028 0.019-0.028 0.019-0.058 0.038-0.085 0.049-0.051 0.019-0.085 0.132-0.068 0.215 0.013 0.113 0.064 0.154 0.117 0.136z">
			</path>
			<path fill="#010101" style="fill: var(--color9, #010101)" d="M5.519 18.357c-0.346 0.075-0.693 0.026-1.028-0.154-0.239-0.128-0.704-0.384-0.64-0.964 0.030-0.271 0.141-0.501 0.247-0.689 0.109-0.192 0.226-0.369 0.354-0.52 0.262-0.316 0.555-0.535 0.864-0.655 0.124-0.049 0.073-0.384-0.053-0.339-0.54 0.211-1.084 0.734-1.429 1.506-0.166 0.373-0.273 0.885-0.096 1.306 0.162 0.388 0.478 0.576 0.73 0.708 0.339 0.177 0.698 0.226 1.047 0.151 0.13-0.026 0.132-0.376 0.004-0.35z">
			</path>
			<path fill="#010101" style="fill: var(--color9, #010101)" d="M5.109 16.109c-0.134 0.026-0.262 0.090-0.384 0.192-0.111 0.094-0.226 0.226-0.303 0.399-0.087 0.192-0.102 0.429-0.041 0.651 0.053 0.196 0.158 0.339 0.275 0.403 0.154 0.087 0.318 0.041 0.474 0 0.053-0.015 0.083-0.132 0.068-0.215-0.015-0.102-0.068-0.136-0.122-0.12-0.128 0.034-0.269 0.072-0.393-0.015 0.011 0.008-0.021-0.019-0.023-0.023-0.013-0.011-0.023-0.026-0.036-0.041 0.006 0.008 0.004 0.004-0.004-0.008-0.004-0.008-0.011-0.019-0.015-0.026-0.002-0.004-0.026-0.049-0.019-0.034-0.009-0.019-0.015-0.041-0.023-0.060-0.004-0.011-0.006-0.023-0.009-0.034 0.002 0.015 0.002 0.011-0.002-0.008-0.004-0.023-0.009-0.045-0.011-0.068 0.002 0.030 0-0.034 0-0.041 0-0.023 0-0.023 0-0.008 0.002-0.011 0.002-0.023 0.004-0.034 0.002-0.019 0.004-0.026 0.013-0.049 0.013-0.041 0.030-0.072 0.051-0.109 0.045-0.075 0.096-0.136 0.149-0.188 0.107-0.109 0.233-0.184 0.352-0.207 0.053-0.011 0.098-0.072 0.098-0.173-0.002-0.094-0.047-0.192-0.1-0.184z">
			</path>
			<path fill="#e48929" style="fill: var(--color5, #e48929)" d="M10.579 16.704c0.173 0.783 0.369 1.566 0.51 2.349 0.034 0.192-0.049 0.384-0.162 0.388-0.201 0.004-0.437 0.008-0.634 0.008-0.1 0-0.179-0.151-0.171-0.331l0.128-2.338c0.017-0.316 0.262-0.373 0.329-0.075z">
			</path>
			<path fill="#efb086" style="fill: var(--color10, #efb086)" d="M11.573 26.594c0 0-1.397 0.99-2.857-0.094l0.111 1.016 2.509 1.623 0.237-2.545z">
			</path>
			<path fill="#fff" style="fill: var(--color7, #fff)" d="M10.626 2.575c0.708-0.034 1.346-0.489 2.048-0.279 0.486 0.147 1.058 0.591 1.455 1.073 0.821 0.998 1.444 2.048 2.086 3.407 0.087 0.188 0.915 2.379 0.224-0.015-0.471-1.626-1.577-2.801-2.428-3.829-0.405-0.489-0.791-0.855-1.282-1.001-0.721-0.218-2.253-0.395-2.246-0.154 0.011 0.309 0.011 0.587 0.011 0.587l0.132 0.211z">
			</path>
		</symbol>
		<symbol id="icon-Group-7" viewBox="0 0 15 32">
			<path fill="#f7bc28" style="fill: var(--color3, #f7bc28)" d="M12.528 32h-10.49c-1.126 0-2.038-1.663-2.038-3.716v-22.625c0-2.053 0.912-3.716 2.038-3.716h10.49c1.126 0 2.038 1.663 2.038 3.716v22.625c0 2.053-0.912 3.716-2.038 3.716z">
			</path>
			<path fill="#e48929" style="fill: var(--color5, #e48929)" d="M12.254 11.747h-9.942c-0.474 0-0.86-0.704-0.86-1.568v-4.365c0-0.864 0.386-1.568 0.86-1.568h9.942c0.474 0 0.86 0.704 0.86 1.568v4.365c0 0.864-0.386 1.568-0.86 1.568z">
			</path>
			<path fill="#e48929" style="fill: var(--color5, #e48929)" d="M12.254 20.403h-9.942c-0.4 0-0.723-0.589-0.723-1.319v-4.365c0-0.729 0.323-1.319 0.723-1.319h9.942c0.4 0 0.723 0.589 0.723 1.319v4.365c0 0.729-0.323 1.319-0.723 1.319z">
			</path>
			<path fill="#e48929" style="fill: var(--color5, #e48929)" d="M12.254 29.558h-9.942c-0.474 0-0.86-0.704-0.86-1.568v-4.365c0-0.864 0.386-1.568 0.86-1.568h9.942c0.474 0 0.86 0.704 0.86 1.568v4.365c0 0.864-0.386 1.568-0.86 1.568z">
			</path>
			<path fill="#f7bc28" style="fill: var(--color3, #f7bc28)" d="M7.359 18.23c0.402 0 0.729-0.595 0.729-1.329s-0.326-1.329-0.729-1.329c-0.402 0-0.729 0.595-0.729 1.329s0.326 1.329 0.729 1.329z">
			</path>
			<path fill="#f7bc28" style="fill: var(--color3, #f7bc28)" d="M7.359 27.135c0.402 0 0.729-0.595 0.729-1.329s-0.326-1.329-0.729-1.329c-0.402 0-0.729 0.595-0.729 1.329s0.326 1.329 0.729 1.329z">
			</path>
			<path fill="#fbfaf7" style="fill: var(--color4, #fbfaf7)" d="M2.265 2.347c0.362 3.646 0.592 7.432 0.975 11.053h7.228c-0.592-6.343-0.898-8.631-1.238-12.701-0.038-0.44-0.26-0.749-0.501-0.694l-6.078 1.379c-0.257 0.060-0.433 0.499-0.386 0.964z">
			</path>
			<path fill="#194429" style="fill: var(--color11, #194429)" d="M4.092 5.449c1.367 0.085 2.731-0.025 4.089-0.33 0.216-0.050 0.219-0.674 0-0.624-1.356 0.305-2.723 0.415-4.089 0.33-0.219-0.010-0.219 0.614 0 0.624z">
			</path>
			<path fill="#194429" style="fill: var(--color11, #194429)" d="M4.366 7.946c1.367 0.085 2.731-0.025 4.089-0.33 0.216-0.050 0.219-0.674 0-0.624-1.356 0.305-2.722 0.415-4.089 0.33-0.219-0.010-0.219 0.614 0 0.624z">
			</path>
			<path fill="#194429" style="fill: var(--color11, #194429)" d="M4.64 10.444c1.367 0.085 2.731-0.025 4.089-0.33 0.216-0.050 0.219-0.674 0-0.624-1.356 0.305-2.722 0.415-4.089 0.33-0.219-0.010-0.219 0.614 0 0.624z">
			</path>
		</symbol>
		<symbol id="icon-Group-6" viewBox="0 0 16 32">
			<path fill="#f7bc28" style="fill: var(--color3, #f7bc28)" d="M1.181 6.019c-0.68 0.649-1.114 1.837-1.145 3.148-0.108 4.432-0.21 13.799 3.497 18.553l3.177 3.542c0.725 0.808 1.662 0.849 2.414 0.111 0.983-0.964 2.299-2.417 3.060-3.925 0.034-0.070 0.070-0.135 0.108-0.2 0.482-0.82 4.113-7.38 3.549-18.197-0.065-1.238-0.485-2.349-1.128-2.972l-5.626-5.442c-0.7-0.678-1.563-0.683-2.265-0.010l-5.641 5.392z">
			</path>
			<path fill="#e48929" style="fill: var(--color5, #e48929)" d="M2.929 8.498c-0.504 0.481-0.825 1.364-0.85 2.335-0.080 3.287-0.155 10.232 2.593 13.76l2.356 2.628c0.538 0.599 1.233 0.63 1.79 0.082 0.729-0.714 1.705-1.792 2.269-2.91 0.026-0.051 0.052-0.101 0.080-0.147 0.357-0.608 3.040-5.521 2.632-13.496-0.026-0.517-0.792-2.063-1.053-2.414l-3.954-3.831c-0.52-0.503-1.158-0.505-1.679-0.007l-4.185 3.999z">
			</path>
			<path fill="#fbfaf7" style="fill: var(--color4, #fbfaf7)" d="M7.949 4.127v11.887h5.684c0 0 0.405-3.316 0.168-5.262 0 0-0.066-1.337-1.053-2.414l-3.955-3.831c0 0-0.402-0.404-0.844-0.38z">
			</path>
			<path fill="#fbfaf7" style="fill: var(--color4, #fbfaf7)" d="M7.949 16.013l-0.001 11.678c0 0-0.456 0.043-1.029-0.597l-1.894-2.111c0 0-1.606-1.604-2.128-4.259 0 0-0.659-2.441-0.749-4.93l5.802 0.219z">
			</path>
		</symbol>
		<symbol id="icon-Group-5" viewBox="0 0 26 32">
			<path fill="#f7bc28" style="fill: var(--color3, #f7bc28)" d="M24.262 0.79c1.746 1.040 1.419 3.997 1.508 7.814 0.051 2.132 0.060 3.062 0.041 5.020-0.016 1.487 0.118 4.102-0.334 5.351-0.461 1.272-1.714 1.58-2.506 1.877-0.999 0.372-2.010 0.627-3.028 0.726-0.601 0.058-1.202 0.116-1.8 0.209-0.353 0.058-0.932-0.006-1.247 0.354-0.382 0.442-0.646 2.458-1.091 3.567-0.398 0.988-0.916 1.917-1.52 2.463-0.169 0.151-0.353 0.279-0.541 0.226-0.588-0.151-0.544-1.975-0.547-2.765-0.003-0.662 0.016-1.365 0.089-2.033s-0.229-1.273-0.601-1.214l-1.434 0.226c-2.751 0.081-3.394-0.104-5.872-1.011-1.008-0.366-1.587-1.708-1.641-3.637-0.070-2.521-0.010-5.078-0.016-7.599-0.003-2.062-0.181-4.392 0.426-6.251 0.639-1.958 2.017-2.55 3.251-2.887 3.104-0.819 6.231-1.185 9.37-1.226 0 0 6.018-0.087 7.494 0.79z">
			</path>
			<path fill="#fff" style="fill: var(--color7, #fff)" d="M8.613 9.731c4.214 0.198 8.448 0.035 12.653-0.517 0.608-0.081 0.614-1.824 0-1.743-4.205 0.552-8.438 0.715-12.653 0.517-0.614-0.029-0.614 1.714 0 1.743z">
			</path>
			<path fill="#fff" style="fill: var(--color7, #fff)" d="M7.891 14.635c2.726 0 5.452-0.232 8.178-0.29 2.109-0.041 4.208 0.145 6.311-0.186 0.607-0.093 0.614-1.836 0-1.743-2.102 0.325-4.202 0.139-6.311 0.186-2.726 0.058-5.452 0.29-8.178 0.29-0.614 0-0.617 1.743 0 1.743z">
			</path>
			<path fill="#39b55d" style="fill: var(--color12, #39b55d)" d="M3.578 30.199c0.032-0.348-0.092-0.691-0.283-0.761-1.171-0.424-2.265-1.435-2.952-3.312-1.177-3.219 0.932-6.507 2.433-7.587 1.543-1.11 3.381-0.982 4.809 0.569 0.092 0.099 0.178 0.203 0.264 0.32 1.027 1.365 1.886 4.055 1.613 6.304-0.102 0.831-0.353 1.598-0.811 2.219-0.852 1.162-2.010 1.592-3.114 1.702-0.213 0.023-0.413 0.186-0.553 0.476-0.232 0.476-0.62 1.226-0.976 1.743-0.235 0.343-0.579-0.041-0.528-0.581l0.099-1.092z">
			</path>
			<path fill="#fff" style="fill: var(--color7, #fff)" d="M2.818 23.088c1.39 0 2.78 0 4.17 0 0.512 0 0.512-1.452 0-1.452-1.39 0-2.78 0-4.17 0-0.512 0-0.512 1.452 0 1.452z">
			</path>
			<path fill="#fff" style="fill: var(--color7, #fff)" d="M2.614 26.179c1.441 0 2.882 0 4.323 0 0.512 0 0.512-1.452 0-1.452-1.441 0-2.882 0-4.323 0-0.512 0-0.512 1.452 0 1.452z">
			</path>
		</symbol>
	</defs>
</svg>
